REM DIRINDEX 1\2,1\3,1\4,1\5
REM DIRNAME cjc005,folder01,folder02,folder03,folder04
TITLE ""
FILE "P1Q_t_1501-1510.mp3" MP3
  TRACK 01 AUDIO
    TITLE "3:cjc005_5411"
    INDEX 01 00:00:00
  TRACK 02 AUDIO
    TITLE "0:"
    INDEX 01 00:00:66
  TRACK 03 AUDIO
    TITLE "4:cjc005_5412"
    INDEX 01 00:01:17
  TRACK 04 AUDIO
    TITLE "0:"
    INDEX 01 00:02:43
  TRACK 05 AUDIO
    TITLE "5:cjc005_5413"
    INDEX 01 00:02:69
  TRACK 06 AUDIO
    TITLE "0:"
    INDEX 01 00:06:02
  TRACK 07 AUDIO
    TITLE "3:cjc005_5414"
    INDEX 01 00:06:47
  TRACK 08 AUDIO
    TITLE "0:"
    INDEX 01 00:07:74
  TRACK 09 AUDIO
    TITLE "4:cjc005_5415"
    INDEX 01 00:08:26
  TRACK 10 AUDIO
    TITLE "0:"
    INDEX 01 00:09:69
  TRACK 11 AUDIO
    TITLE "5:cjc005_5416"
    INDEX 01 00:10:18
  TRACK 12 AUDIO
    TITLE "0:"
    INDEX 01 00:14:60
  TRACK 13 AUDIO
    TITLE "3:cjc005_5417"
    INDEX 01 00:15:36
  TRACK 14 AUDIO
    TITLE "0:"
    INDEX 01 00:16:40
  TRACK 15 AUDIO
    TITLE "4:cjc005_5418"
    INDEX 01 00:17:00
  TRACK 16 AUDIO
    TITLE "0:"
    INDEX 01 00:18:72
  TRACK 17 AUDIO
    TITLE "5:cjc005_5419"
    INDEX 01 00:19:22
  TRACK 18 AUDIO
    TITLE "0:"
    INDEX 01 00:23:65
  TRACK 19 AUDIO
    TITLE "3:cjc005_5420"
    INDEX 01 00:24:41
  TRACK 20 AUDIO
    TITLE "0:"
    INDEX 01 00:25:62
  TRACK 21 AUDIO
    TITLE "4:cjc005_5421"
    INDEX 01 00:26:15
  TRACK 22 AUDIO
    TITLE "0:"
    INDEX 01 00:27:53
  TRACK 23 AUDIO
    TITLE "5:cjc005_5422"
    INDEX 01 00:27:71
  TRACK 24 AUDIO
    TITLE "0:"
    INDEX 01 00:31:16
  TRACK 25 AUDIO
    TITLE "3:cjc005_5423"
    INDEX 01 00:31:63
  TRACK 26 AUDIO
    TITLE "0:"
    INDEX 01 00:33:13
  TRACK 27 AUDIO
    TITLE "4:cjc005_5424"
    INDEX 01 00:33:42
  TRACK 28 AUDIO
    TITLE "0:"
    INDEX 01 00:34:55
  TRACK 29 AUDIO
    TITLE "5:cjc005_5425"
    INDEX 01 00:35:00
  TRACK 30 AUDIO
    TITLE "0:"
    INDEX 01 00:38:57
  TRACK 31 AUDIO
    TITLE "3:cjc005_5426"
    INDEX 01 00:39:37
  TRACK 32 AUDIO
    TITLE "0:"
    INDEX 01 00:40:54
  TRACK 33 AUDIO
    TITLE "4:cjc005_5427"
    INDEX 01 00:41:08
  TRACK 34 AUDIO
    TITLE "0:"
    INDEX 01 00:42:35
  TRACK 35 AUDIO
    TITLE "5:cjc005_5428"
    INDEX 01 00:42:55
  TRACK 36 AUDIO
    TITLE "0:"
    INDEX 01 00:46:27
  TRACK 37 AUDIO
    TITLE "3:cjc005_5429"
    INDEX 01 00:47:05
  TRACK 38 AUDIO
    TITLE "0:"
    INDEX 01 00:48:20
  TRACK 39 AUDIO
    TITLE "4:cjc005_5430"
    INDEX 01 00:48:48
  TRACK 40 AUDIO
    TITLE "0:"
    INDEX 01 00:49:70
  TRACK 41 AUDIO
    TITLE "5:cjc005_5431"
    INDEX 01 00:50:19
  TRACK 42 AUDIO
    TITLE "0:"
    INDEX 01 00:53:58
  TRACK 43 AUDIO
    TITLE "3:cjc005_5432"
    INDEX 01 00:54:32
  TRACK 44 AUDIO
    TITLE "0:"
    INDEX 01 00:55:63
  TRACK 45 AUDIO
    TITLE "4:cjc005_5433"
    INDEX 01 00:56:08
  TRACK 46 AUDIO
    TITLE "0:"
    INDEX 01 00:57:41
  TRACK 47 AUDIO
    TITLE "5:cjc005_5434"
    INDEX 01 00:57:64
  TRACK 48 AUDIO
    TITLE "0:"
    INDEX 01 01:01:40
  TRACK 49 AUDIO
    TITLE "3:cjc005_5435"
    INDEX 01 01:02:12
  TRACK 50 AUDIO
    TITLE "0:"
    INDEX 01 01:03:35
  TRACK 51 AUDIO
    TITLE "4:cjc005_5436"
    INDEX 01 01:03:59
  TRACK 52 AUDIO
    TITLE "0:"
    INDEX 01 01:05:01
  TRACK 53 AUDIO
    TITLE "5:cjc005_5437"
    INDEX 01 01:05:24
  TRACK 54 AUDIO
    TITLE "0:"
    INDEX 01 01:09:20
  TRACK 55 AUDIO
    TITLE "3:cjc005_5438"
    INDEX 01 01:09:73
  TRACK 56 AUDIO
    TITLE "0:"
    INDEX 01 01:11:11
  TRACK 57 AUDIO
    TITLE "4:cjc005_5439"
    INDEX 01 01:11:37
  TRACK 58 AUDIO
    TITLE "0:"
    INDEX 01 01:13:04
  TRACK 59 AUDIO
    TITLE "5:cjc005_5440"
    INDEX 01 01:13:30
  TRACK 60 AUDIO
    TITLE "0:"
    INDEX 01 01:17:35
